<svg width="1924" height="4005" viewBox="0 0 1924 4005" fill="none" xmlns="http://www.w3.org/2000/svg">
<g clip-path="url(#clip0_7945_209921)">
<rect width="1924" height="4005" fill="#F8F8FF"/>
<circle opacity="0.2" cx="1966.25" cy="1914.33" r="124.624" fill="#657ED4"/>
<g opacity="0.2">
<path d="M1890.7 1838.29C1874.82 1827.01 1855.12 1822.5 1835.92 1825.76C1816.72 1829.01 1799.6 1839.75 1788.32 1855.63C1777.05 1871.51 1772.54 1891.21 1775.79 1910.41C1779.04 1929.61 1789.79 1946.73 1805.66 1958L1819.51 1938.51C1808.8 1930.91 1801.56 1919.36 1799.36 1906.42C1797.17 1893.47 1800.21 1880.18 1807.81 1869.48C1815.42 1858.77 1826.96 1851.52 1839.91 1849.33C1852.86 1847.14 1866.14 1850.18 1876.85 1857.78L1890.7 1838.29Z" fill="#1F49B4"/>
<circle cx="1838.57" cy="1894.63" r="12.2636" transform="rotate(-145.334 1838.57 1894.63)" fill="#657ED4"/>
</g>
<circle opacity="0.06" cx="214" cy="658" r="295" fill="#657ED4"/>
<g opacity="0.2">
<path d="M-61.9903 644.141C-62.2694 666.379 -53.7031 687.817 -38.1758 703.74C-22.6484 719.662 -1.43203 728.763 20.8061 729.043C43.0442 729.322 64.4824 720.755 80.4045 705.228C96.3267 689.701 105.428 668.484 105.708 646.246L78.4009 645.903C78.2127 660.899 72.075 675.206 61.3382 685.677C50.6013 696.148 36.1448 701.924 21.1489 701.736C6.15294 701.548 -8.15402 695.41 -18.6246 684.673C-29.0953 673.936 -34.8718 659.48 -34.6836 644.484L-61.9903 644.141Z" fill="#1F49B4"/>
<circle cx="24.7904" cy="656.514" r="14.0065" transform="rotate(90 24.7904 656.514)" fill="#657ED4"/>
</g>
<g opacity="0.41">
<circle opacity="0.1" cx="40.4217" cy="2671.51" r="214.422" fill="#657ED4"/>
<g opacity="0.2">
<path d="M17.5105 2507.69C33.0139 2535.34 58.8655 2555.7 89.3784 2564.28C119.891 2572.87 152.566 2568.99 180.214 2553.48C207.863 2537.98 228.22 2512.13 236.808 2481.61C245.396 2451.1 241.51 2418.43 226.007 2390.78L192.057 2409.82C202.511 2428.46 205.131 2450.49 199.34 2471.07C193.549 2491.65 179.822 2509.08 161.177 2519.53C142.533 2529.99 120.499 2532.61 99.9236 2526.82C79.3477 2521.02 61.915 2507.3 51.4606 2488.65L17.5105 2507.69Z" fill="#1F49B4"/>
<circle cx="133.451" cy="2461.11" r="19.9634" transform="rotate(60 133.451 2461.11)" fill="#657ED4"/>
</g>
</g>
</g>
<defs>
<clipPath id="clip0_7945_209921">
<rect width="1924" height="4005" fill="white"/>
</clipPath>
</defs>
</svg>
