<svg width="470" height="433" viewBox="0 0 470 433" fill="none" xmlns="http://www.w3.org/2000/svg">
<circle opacity="0.14" cx="186.842" cy="186.84" r="161.615" transform="rotate(-80.1668 186.842 186.84)" fill="#657ED4"/>
<g opacity="0.15">
<path d="M240.686 243.838C231.382 263.843 230.406 286.726 237.973 307.451C245.54 328.176 261.03 345.047 281.036 354.351C301.041 363.656 323.924 364.632 344.649 357.065C365.374 349.498 382.245 334.008 391.549 314.002L366.984 302.577C360.709 316.067 349.333 326.513 335.357 331.616C321.382 336.718 305.951 336.06 292.461 329.786C278.97 323.512 268.525 312.135 263.422 298.159C258.319 284.184 258.978 268.753 265.252 255.263L240.686 243.838Z" fill="#1F49B4"/>
<circle cx="314.158" cy="290.346" r="13.8954" transform="rotate(114.223 314.158 290.346)" fill="#32539E"/>
</g>
</svg>
