<svg width="27" height="32" viewBox="0 0 27 32" fill="none" xmlns="http://www.w3.org/2000/svg">
<g filter="url(#filter0_d_7945_208243)">
<path d="M20.0181 3.11719L23.479 6.58893L23.4656 6.6017L20.345 6.60405C20.1803 6.60418 20.0463 6.4715 20.0448 6.3068L20.0156 3.11977L20.0181 3.11719Z" fill="white"/>
</g>
<path d="M14.97 14.9431C14.9776 15.5865 14.5662 16.8419 14.5662 16.8419C14.4243 16.6924 14.1406 15.8925 14.1406 15.1526C14.1406 14.4128 14.3796 14.2109 14.5662 14.2109C14.7533 14.2109 14.9622 14.3004 14.97 14.9431Z" fill="#DC1D00"/>
<path d="M19.4554 20.549C19.4554 21.3988 17.9156 21.0524 16.9688 20.1509C16.9688 20.1509 19.4554 19.6999 19.4554 20.549Z" fill="#DC1D00"/>
<path d="M10.5175 23.3511C9.75536 22.8949 12.1173 21.49 12.5435 21.4453C12.5435 21.4453 11.3155 23.8283 10.5175 23.3511Z" fill="#DC1D00"/>
<path d="M14.9259 18.2422C15.3591 19.0491 16.219 19.9985 16.219 19.9985C16.219 19.9985 15.8899 20.0356 15.1253 20.2228C14.3605 20.4099 13.9766 20.6042 13.9766 20.6042C13.9766 20.6042 13.9766 20.6042 14.2903 19.9014C14.6046 19.1986 14.9259 18.2422 14.9259 18.2422Z" fill="#DC1D00"/>
<g filter="url(#filter1_d_7945_208243)">
<path d="M23.4928 6.60486V25.8839C23.4928 26.4362 23.045 26.8839 22.4928 26.8839H6.85938C6.30709 26.8839 5.85938 26.4362 5.85938 25.8839V11.7422V10V7.5V5.54496V4.11719C5.85938 3.5649 6.30709 3.11719 6.85938 3.11719H20.0166L20.0191 3.12035L20.0166 3.12287L20.0458 6.30991C20.0473 6.4746 20.1813 6.60728 20.346 6.60716L23.4666 6.6048L23.48 6.59203L23.4928 6.60486Z" fill="#DC1D00"/>
</g>
<path d="M11.4523 20.1214C10.9478 20.1756 8.15105 21.8797 9.05352 22.433C9.99838 23.0119 11.4523 20.1214 11.4523 20.1214ZM16.6886 18.5559C17.8097 19.6494 19.6329 20.0695 19.6329 19.0388C19.6329 18.0088 16.6886 18.5559 16.6886 18.5559ZM15.8066 18.3622C15.8066 18.3622 14.7884 17.2106 14.2755 16.2318C14.2755 16.2318 13.895 17.3919 13.5228 18.2443C13.1513 19.0968 13.1513 19.0968 13.1513 19.0968C13.1513 19.0968 13.606 18.8612 14.5115 18.6341C15.4169 18.4072 15.8066 18.3622 15.8066 18.3622ZM13.8504 14.5362C13.8504 14.5362 14.3375 13.0134 14.3285 12.2331C14.3193 11.4535 14.072 11.3449 13.8504 11.3449C13.6295 11.3449 13.3465 11.5898 13.3465 12.4872C13.3465 13.3846 13.6823 14.3549 13.8504 14.5362ZM14.4616 15.7149C14.9572 16.8122 16.3203 18.2258 16.3203 18.2258C16.3203 18.2258 16.7621 18.108 18.5852 18.0631C20.409 18.0181 20.4885 19.0689 20.4968 19.1596C20.5059 19.2511 20.577 20.085 19.1253 20.1391C17.6744 20.1934 16.1691 18.6435 16.1691 18.6435C16.1691 18.6435 15.5502 18.7434 15.0373 18.8698C14.5244 18.9968 12.8776 19.4595 12.8776 19.4595C12.8776 19.4595 12.3904 20.3662 11.3109 21.8162C10.2307 23.2669 9.02105 23.1584 8.67604 22.6778C8.2751 22.1199 8.58453 21.5629 9.34553 20.8373C10.1065 20.112 11.8624 19.5106 11.8624 19.5106C11.8624 19.5106 12.2164 18.8581 12.7353 17.6128C13.2542 16.3674 13.6469 15.1166 13.6469 15.1166C13.6469 15.1166 13.1332 13.9217 13.0333 12.9049C12.9214 11.7712 13.0455 11.0094 13.895 11.0001C14.7446 10.9908 15.01 11.6441 15.0365 12.777C15.063 13.9109 14.4616 15.7149 14.4616 15.7149Z" fill="white"/>
<defs>
<filter id="filter0_d_7945_208243" x="18.0156" y="2.11719" width="7.46094" height="7.48828" filterUnits="userSpaceOnUse" color-interpolation-filters="sRGB">
<feFlood flood-opacity="0" result="BackgroundImageFix"/>
<feColorMatrix in="SourceAlpha" type="matrix" values="0 0 0 0 0 0 0 0 0 0 0 0 0 0 0 0 0 0 127 0" result="hardAlpha"/>
<feOffset dy="1"/>
<feGaussianBlur stdDeviation="1"/>
<feComposite in2="hardAlpha" operator="out"/>
<feColorMatrix type="matrix" values="0 0 0 0 0 0 0 0 0 0 0 0 0 0 0 0 0 0 0.31 0"/>
<feBlend mode="normal" in2="BackgroundImageFix" result="effect1_dropShadow_7945_208243"/>
<feBlend mode="normal" in="SourceGraphic" in2="effect1_dropShadow_7945_208243" result="shape"/>
</filter>
<filter id="filter1_d_7945_208243" x="0.859375" y="0.117188" width="25.6328" height="31.7656" filterUnits="userSpaceOnUse" color-interpolation-filters="sRGB">
<feFlood flood-opacity="0" result="BackgroundImageFix"/>
<feColorMatrix in="SourceAlpha" type="matrix" values="0 0 0 0 0 0 0 0 0 0 0 0 0 0 0 0 0 0 127 0" result="hardAlpha"/>
<feOffset dx="-1" dy="1"/>
<feGaussianBlur stdDeviation="2"/>
<feComposite in2="hardAlpha" operator="out"/>
<feColorMatrix type="matrix" values="0 0 0 0 0.408333 0 0 0 0 0 0 0 0 0 0 0 0 0 0.2 0"/>
<feBlend mode="normal" in2="BackgroundImageFix" result="effect1_dropShadow_7945_208243"/>
<feBlend mode="normal" in="SourceGraphic" in2="effect1_dropShadow_7945_208243" result="shape"/>
</filter>
</defs>
</svg>
